<svg viewBox="0 0 1200 900" xmlns="http://www.w3.org/2000/svg">
  <!-- Header -->
  <rect x="0" y="0" width="1200" height="60" fill="#f5f5f5" stroke="#333" stroke-width="2"/>
  <circle cx="30" cy="30" r="15" fill="#666"/>
  <text x="55" y="35" font-family="Arial" font-size="14" font-weight="bold">Computis</text>

  <!-- Navigation -->

  <rect x="200" y="20" width="80" height="20" fill="#ddd" stroke="#666"/>
  <rect x="290" y="20" width="100" height="20" fill="none" stroke="#666"/>
  <rect x="400" y="20" width="100" height="20" fill="none" stroke="#666"/>
  <rect x="510" y="20" width="70" height="20" fill="none" stroke="#666"/>
  <rect x="590" y="20" width="70" height="20" fill="none" stroke="#666"/>
  <rect x="670" y="20" width="90" height="20" fill="none" stroke="#666"/>
  <rect x="770" y="20" width="70" height="20" fill="none" stroke="#666"/>
  <rect x="850" y="20" width="80" height="20" fill="none" stroke="#666"/>

<text x="205" y="35" font-size="10">Dashboard</text>

  <!-- Page Title -->

<text x="50" y="100" font-family="Arial" font-size="20" font-weight="bold">Overview</text>

  <!-- KPI Cards Grid -->

  <rect x="50" y="130" width="260" height="100" fill="white" stroke="#333" stroke-width="2"/>
  <text x="60" y="150" font-size="11" fill="#666">Total Portfolio</text>
  <text x="60" y="175" font-size="24" font-weight="bold">$518,646</text>
  <rect x="60" y="185" width="70" height="18" fill="#e0e0e0" rx="9"/>
  <text x="65" y="197" font-size="9">+12.4% MoM</text>

  <rect x="330" y="130" width="260" height="100" fill="white" stroke="#333" stroke-width="2"/>
  <text x="340" y="150" font-size="11" fill="#666">Realized Gains</text>
  <text x="340" y="175" font-size="24" font-weight="bold">$45,234</text>
  <rect x="340" y="185" width="50" height="18" fill="#e0e0e0" rx="9"/>

  <rect x="610" y="130" width="260" height="100" fill="white" stroke="#333" stroke-width="2"/>
  <text x="620" y="150" font-size="11" fill="#666">Unrealized Gains</text>
  <text x="620" y="175" font-size="24" font-weight="bold">$82,222</text>
  <rect x="620" y="185" width="50" height="18" fill="#e0e0e0" rx="9"/>

  <rect x="890" y="130" width="260" height="100" fill="white" stroke="#333" stroke-width="2"/>
  <text x="900" y="150" font-size="11" fill="#666">Tax Liability</text>
  <text x="900" y="175" font-size="24" font-weight="bold">$12,891</text>
  <rect x="900" y="185" width="50" height="18" fill="#e0e0e0" rx="9"/>

  <!-- Charts Section -->

  <rect x="50" y="260" width="760" height="200" fill="white" stroke="#333" stroke-width="2"/>
  <text x="60" y="280" font-size="12" font-weight="bold">Portfolio Performance</text>
  <rect x="70" y="295" width="720" height="140" fill="#f9f9f9" stroke="#999" stroke-dasharray="5,5"/>
  <text x="380" y="370" font-size="14" fill="#999" text-anchor="middle">[CHART PLACEHOLDER]</text>

  <rect x="830" y="260" width="320" height="200" fill="white" stroke="#333" stroke-width="2"/>
  <text x="840" y="280" font-size="12" font-weight="bold">Allocation</text>
  <circle cx="990" cy="360" r="60" fill="#f9f9f9" stroke="#999" stroke-dasharray="5,5"/>
  <text x="990" y="365" font-size="12" fill="#999" text-anchor="middle">PIE</text>

  <!-- Recent Transactions Table -->

<text x="50" y="500" font-family="Arial" font-size="16" font-weight="bold">Recent Transactions</text>

  <rect x="50" y="520" width="1100" height="280" fill="white" stroke="#333" stroke-width="2"/>

  <!-- Table Header -->

  <rect x="50" y="520" width="1100" height="35" fill="#e8e8e8" stroke="#333"/>
  <line x1="50" y1="555" x2="1150" y2="555" stroke="#333" stroke-width="1"/>

<text x="60" y="542" font-size="10" font-weight="bold">Date</text>
<text x="160" y="542" font-size="10" font-weight="bold">Type</text>
<text x="260" y="542" font-size="10" font-weight="bold">Asset</text>
<text x="360" y="542" font-size="10" font-weight="bold">Amount</text>
<text x="500" y="542" font-size="10" font-weight="bold">Price</text>
<text x="650" y="542" font-size="10" font-weight="bold">Value</text>
<text x="800" y="542" font-size="10" font-weight="bold">Status</text>

  <!-- Table Rows -->

  <line x1="150" y1="520" x2="150" y2="800" stroke="#ddd"/>
  <line x1="250" y1="520" x2="250" y2="800" stroke="#ddd"/>
  <line x1="350" y1="520" x2="350" y2="800" stroke="#ddd"/>
  <line x1="490" y1="520" x2="490" y2="800" stroke="#ddd"/>
  <line x1="640" y1="520" x2="640" y2="800" stroke="#ddd"/>
  <line x1="790" y1="520" x2="790" y2="800" stroke="#ddd"/>

  <rect x="60" y="565" width="80" height="12" fill="#f0f0f0"/>
  <rect x="160" y="565" width="40" height="12" fill="#f0f0f0"/>
  <rect x="260" y="565" width="50" height="12" fill="#f0f0f0"/>
  <rect x="360" y="565" width="100" height="12" fill="#f0f0f0"/>
  <rect x="500" y="565" width="100" height="12" fill="#f0f0f0"/>
  <rect x="650" y="565" width="100" height="12" fill="#f0f0f0"/>
  <rect x="800" y="570" width="60" height="16" fill="#d0d0d0" rx="8"/>

  <line x1="50" y1="595" x2="1150" y2="595" stroke="#ddd"/>

  <rect x="60" y="605" width="80" height="12" fill="#f0f0f0"/>
  <rect x="160" y="605" width="40" height="12" fill="#f0f0f0"/>
  <rect x="260" y="605" width="50" height="12" fill="#f0f0f0"/>
  <rect x="800" y="610" width="60" height="16" fill="#d0d0d0" rx="8"/>

  <line x1="50" y1="635" x2="1150" y2="635" stroke="#ddd"/>

  <rect x="60" y="645" width="80" height="12" fill="#f0f0f0"/>
  <rect x="160" y="645" width="50" height="12" fill="#f0f0f0"/>
  <rect x="260" y="645" width="50" height="12" fill="#f0f0f0"/>
  <rect x="800" y="650" width="60" height="16" fill="#d0d0d0" rx="8"/>

  <!-- Footer -->

  <rect x="0" y="860" width="1200" height="40" fill="#f5f5f5" stroke="#333" stroke-width="2"/>
  <text x="600" y="885" font-size="10" fill="#666" text-anchor="middle">© 2025 Computis • Demo prototype</text>

  <!-- Annotations -->

<text x="1050" y="90" font-size="9" fill="#0066cc" font-style="italic">Main navigation</text>
<line x1="950" y1="30" x2="1040" y2="85" stroke="#0066cc" stroke-width="1" stroke-dasharray="2,2"/>

<text x="320" y="245" font-size="9" fill="#0066cc" font-style="italic">Key metrics at a glance</text>
</svg>